<?xml version="1.0" encoding="UTF-8" standalone="no"?>
<!-- Created with Inkscape (http://www.inkscape.org/) -->

<svg
   xmlns:dc="http://purl.org/dc/elements/1.1/"
   xmlns:cc="http://creativecommons.org/ns#"
   xmlns:rdf="http://www.w3.org/1999/02/22-rdf-syntax-ns#"
   xmlns:svg="http://www.w3.org/2000/svg"
   xmlns="http://www.w3.org/2000/svg"
   xmlns:sodipodi="http://sodipodi.sourceforge.net/DTD/sodipodi-0.dtd"
   xmlns:inkscape="http://www.inkscape.org/namespaces/inkscape"
   width="200mm"
   height="200mm"
   viewBox="0 0 708.66142 708.66141"
   id="svg2"
   version="1.1"
   inkscape:version="0.91 r13725"
   sodipodi:docname="drawing.svg"
   inkscape:export-filename="/Users/brianpetersen/Desktop/import-antigravity.png"
   inkscape:export-xdpi="90"
   inkscape:export-ydpi="90">
  <defs
     id="defs4" />
  <sodipodi:namedview
     id="base"
     pagecolor="#ffffff"
     bordercolor="#666666"
     borderopacity="1.0"
     inkscape:pageopacity="0.0"
     inkscape:pageshadow="2"
     inkscape:zoom="0.35"
     inkscape:cx="321.42857"
     inkscape:cy="234.28571"
     inkscape:document-units="px"
     inkscape:current-layer="layer1"
     showgrid="false"
     inkscape:window-width="1440"
     inkscape:window-height="775"
     inkscape:window-x="0"
     inkscape:window-y="1"
     inkscape:window-maximized="1" />
  <metadata
     id="metadata7">
    <rdf:RDF>
      <cc:Work
         rdf:about="">
        <dc:format>image/svg+xml</dc:format>
        <dc:type
           rdf:resource="http://purl.org/dc/dcmitype/StillImage" />
        <dc:title></dc:title>
      </cc:Work>
    </rdf:RDF>
  </metadata>
  <g
     inkscape:label="Layer 1"
     inkscape:groupmode="layer"
     id="layer1"
     transform="translate(0,-343.7008)">
    <g
       id="g3338"
       inkscape:export-xdpi="90"
       inkscape:export-ydpi="90"
       transform="matrix(2.0260357,0,0,2.0260357,-88.484585,-286.49496)">
      <path
         sodipodi:nodetypes="sssssssssscscssssssscssssscccccsssssssssss"
         inkscape:connector-curvature="0"
         id="path4216"
         d="m 134.47965,585.48724 c -1.07408,-23.79412 41.60346,-118.125 53.44257,-118.125 2.32093,0 -2.83769,10.36736 -11.46361,23.03858 -8.6259,12.67123 -21.5333,40.72592 -28.68309,62.34375 -7.1498,21.61785 -13.13294,36.35204 -13.29587,32.74267 z m 215.88853,-89.6875 c -10.15863,-3.24325 -27.6296,-6.0466 -38.82438,-6.22966 -14.97857,-0.24496 -19.62029,-1.91829 -17.57546,-6.336 1.52827,-3.30174 4.18164,-14.62205 5.89638,-25.15625 2.62086,-16.10088 1.0754,-21.18456 -9.69797,-31.90084 l -12.81566,-12.74776 -8.09249,16.05684 c -8.04069,15.95403 -32.80772,37.63578 -42.90487,37.56011 -2.90247,-0.0219 2.35683,-5.45892 11.68732,-12.08259 9.33049,-6.62368 20.61053,-19.27731 25.06675,-28.11918 10.38534,-20.60622 10.21074,-21.97555 -2.10527,-16.5111 -30.3236,13.45418 -58.39625,-1.77771 -58.39625,-31.68511 0,-25.43377 11.51495,-38.16096 34.52623,-38.16096 15.26394,0 20.28105,2.73719 32.05663,17.48915 10.76756,13.48915 13.28965,20.91641 11.02731,32.47414 l -2.9332,14.985 37.86177,5.1076 c 54.7805,7.38995 55.78518,7.63915 32.58455,8.08223 -11.60986,0.22173 -30.01413,-1.31132 -40.89838,-3.40676 -21.64958,-4.16799 -23.8673,-2.59337 -11.85104,8.41442 4.36617,3.99974 12.36219,17.93601 17.76893,30.96949 l 9.83042,23.69723 25.76807,-0.86849 25.76806,-0.86848 -18.47024,4.70257 -18.47024,4.70257 16.77219,4.91592 c 16.73376,4.90464 28.89735,11.77643 19.72852,11.14557 -2.6606,-0.18306 -13.14905,-2.98641 -23.30768,-6.22966 z m -36.06221,-22.32888 c -3.29626,-15.53456 -11.43269,-17.13159 -11.43269,-2.24404 0,9.59485 2.19037,13.72964 6.59652,12.45238 3.62808,-1.05172 5.80436,-5.64547 4.83617,-10.20834 z m -48.57874,-72.55857 c 13.84167,-12.31724 13.56671,-20.66684 -1.28418,-38.99681 -22.10143,-27.27906 -56.55956,-19.41334 -56.55956,12.91079 0,32.60652 33.52576,47.72576 57.84374,26.08602 z"
         style="fill:#000000" />
      <text
         sodipodi:linespacing="125%"
         id="text3334"
         y="635.21936"
         x="68.571426"
         style="font-style:normal;font-weight:normal;font-size:40px;line-height:125%;font-family:sans-serif;letter-spacing:0px;word-spacing:0px;fill:#000000;fill-opacity:1;stroke:none;stroke-width:1px;stroke-linecap:butt;stroke-linejoin:miter;stroke-opacity:1"
         xml:space="preserve"><tspan
           style="font-style:normal;font-variant:normal;font-weight:normal;font-stretch:normal;font-size:40px;line-height:125%;font-family:xkcd;-inkscape-font-specification:'xkcd, Normal';text-align:start;writing-mode:lr-tb;text-anchor:start"
           y="635.21936"
           x="68.571426"
           id="tspan3336"
           sodipodi:role="line">PYTHON!</tspan></text>
    </g>
  </g>
</svg>
